#N canvas 566 94 1299 820 10;
#X obj -527 423 dac~;
#X obj -535 -158 osc~;
#X text -537 -267 Oscillator 1;
#X obj -532 -244 hsl 128 15 150 16000 1 0 empty empty empty -2 -8 0
10 -262144 -1 -1 6300 1;
#X floatatom -535 -216 10 0 0 0 - - -;
#X text -43 -195 Sinus;
#X text -42 -153 Sägezahn;
#X text -38 -70 Rechteck;
#X text -42 -112 Dreieck;
#X obj -500 -159 phasor~;
#X obj -530 325 *~;
#X obj -477 327 *~;
#X obj -64 -189 vsl 15 128 3 0 0 0 empty empty empty 0 -9 0 10 -262144
-1 -1 0 1;
#X floatatom -513 296 5 0 0 0 - - -;
#X floatatom -460 297 5 0 0 0 - - -;
#X obj -513 209 expr if ($f1 <= 1 \, 1-$f1 \, 0);
#X obj -442 265 expr if ($f1 <= 0 \, 0 \, $f1);
#X obj -442 241 expr if ($f1 <= 1 \, $f1 \, 2-$f1);
#X obj -420 -157 phasor~;
#X obj -353 -157 phasor~;
#X obj -353 -188 * -1;
#X obj -419 -127 *~ 2;
#X obj -419 -100 -~ 1;
#X obj -418 -68 clip~ 0 1;
#X obj -351 -128 *~ 2;
#X obj -351 -101 -~ 1;
#X obj -350 -69 clip~ 0 1;
#X obj -380 -9 +~;
#X obj -380 329 *~;
#X obj -316 205 expr if ($f1 <= 0 \, 0 \, $f1);
#X floatatom -361 294 5 0 0 0 - - -;
#X obj -316 181 expr if ($f1 <= 2 \, $f1-1 \, 3-$f1);
#X msg -308 -189 0;
#X obj -237 -156 phasor~;
#X obj -175 -157 phasor~;
#X obj -199 -112 +~;
#X obj -200 -81 -~ 1;
#X msg -184 -195 0;
#X msg -136 -193 0.5;
#X obj -141 -234 bng 15 250 50 0 empty empty empty 17 7 0 10 -262144
-1 -1;
#X obj -261 328 *~;
#X floatatom -242 293 5 0 0 0 - - -;
#X obj -224 257 expr if ($f1 <= 0 \, 0 \, $f1);
#X obj -224 233 expr if ($f1 <= 3 \, $f1-2 \, 4-$f1);
#X obj -64 -256 vradio 15 1 0 4 empty empty empty 0 -8 0 10 -262144
-1 -1 3;
#X connect 1 0 10 0;
#X connect 3 0 4 0;
#X connect 4 0 1 0;
#X connect 4 0 9 0;
#X connect 4 0 18 0;
#X connect 4 0 20 0;
#X connect 4 0 33 0;
#X connect 9 0 11 0;
#X connect 10 0 0 0;
#X connect 10 0 0 1;
#X connect 11 0 0 0;
#X connect 11 0 0 1;
#X connect 12 0 15 0;
#X connect 12 0 17 0;
#X connect 12 0 31 0;
#X connect 12 0 43 0;
#X connect 13 0 10 1;
#X connect 14 0 11 1;
#X connect 15 0 13 0;
#X connect 16 0 14 0;
#X connect 17 0 16 0;
#X connect 18 0 21 0;
#X connect 19 0 24 0;
#X connect 20 0 19 0;
#X connect 20 0 34 0;
#X connect 21 0 22 0;
#X connect 22 0 23 0;
#X connect 23 0 27 0;
#X connect 24 0 25 0;
#X connect 25 0 26 0;
#X connect 26 0 27 1;
#X connect 27 0 28 0;
#X connect 28 0 0 0;
#X connect 28 0 0 1;
#X connect 29 0 30 0;
#X connect 30 0 28 1;
#X connect 31 0 29 0;
#X connect 32 0 19 1;
#X connect 32 0 18 1;
#X connect 33 0 35 0;
#X connect 34 0 35 1;
#X connect 35 0 36 0;
#X connect 36 0 40 0;
#X connect 37 0 33 1;
#X connect 38 0 34 1;
#X connect 39 0 38 0;
#X connect 39 0 37 0;
#X connect 40 0 0 0;
#X connect 40 0 0 1;
#X connect 41 0 40 1;
#X connect 42 0 41 0;
#X connect 43 0 42 0;
#X connect 44 0 12 0;
