#N canvas 551 122 1299 820 10;
#X obj -565 154 dac~;
#X text -567 -289 Oscillator 1;
#X obj -563 -255 hsl 128 15 150 16000 1 0 empty empty empty -2 -8 0
10 -262144 -1 -1 2500 1;
#X floatatom -566 -227 10 0 0 0 - - -;
#X text -342 -178 Sinus;
#X text -342 -144 Sägezahn;
#X text -342 -76 Rechteck;
#X text -342 -110 Dreieck;
#X obj -397 -183 vsl 15 128 3 0 0 0 empty empty empty 0 -9 0 10 -262144
-1 -1 0 1;
#X obj -380 -185 vradio 33 1 0 4 empty empty empty 0 -8 0 10 -262144
-1 -1 3;
#N canvas 123 354 450 255 Sinus 0;
#X obj 105 79 osc~;
#X obj 105 116 outlet~;
#X text 102 14;
#X obj 105 38 r Frequenz1;
#X connect 0 0 1 0;
#X connect 3 0 0 0;
#X restore -566 -159 pd Sinus;
#N canvas 90 581 450 300 Saegezahn 0;
#X obj 137 169 outlet~;
#X obj 137 120 phasor~;
#X obj 137 73 r Frequenz1;
#X connect 1 0 0 0;
#X connect 2 0 1 0;
#X restore -534 -137 pd Saegezahn;
#N canvas 47 397 450 300 Dreieck 0;
#X obj 105 271 outlet~;
#X obj 105 96 phasor~;
#X obj 169 95 phasor~;
#X obj 169 60 * -1;
#X obj 105 131 *~ 2;
#X obj 105 166 -~ 1;
#X obj 169 130 *~ 2;
#X obj 169 165 -~ 1;
#X obj 105 236 +~;
#X msg 216 59 0;
#X obj 216 35 bng 15 250 50 0 empty empty empty 17 7 0 10 -262144 -1
-1;
#X obj 105 201 clip~ 0 1;
#X obj 169 200 clip~ 0 1;
#X obj 105 29 r Frequenz1;
#X connect 1 0 4 0;
#X connect 2 0 6 0;
#X connect 3 0 2 0;
#X connect 4 0 5 0;
#X connect 5 0 11 0;
#X connect 6 0 7 0;
#X connect 7 0 12 0;
#X connect 8 0 0 0;
#X connect 9 0 2 1;
#X connect 9 0 1 1;
#X connect 10 0 9 0;
#X connect 11 0 8 0;
#X connect 12 0 8 1;
#X connect 13 0 3 0;
#X connect 13 0 1 0;
#X restore -504 -110 pd Dreieck;
#N canvas 104 482 450 300 Rechteck 0;
#X obj 98 223 outlet~;
#X obj 100 95 phasor~;
#X obj 173 95 phasor~;
#X obj 173 67 * -1;
#X obj 100 139 +~;
#X obj 99 178 -~ 1;
#X msg 139 67 0;
#X msg 212 66 0.5;
#X obj 176 30 bng 15 250 50 0 empty empty empty 17 7 0 10 -262144 -1
-1;
#X obj 100 10 r Frequenz1;
#X connect 1 0 4 0;
#X connect 2 0 4 1;
#X connect 3 0 2 0;
#X connect 4 0 5 0;
#X connect 5 0 0 0;
#X connect 6 0 1 1;
#X connect 7 0 2 1;
#X connect 8 0 6 0;
#X connect 8 0 7 0;
#X connect 9 0 1 0;
#X connect 9 0 3 0;
#X restore -472 -87 pd Rechteck;
#N canvas 116 356 900 599 Wellenform-Mischer 0;
#X obj -452 496 outlet~;
#X obj -101 19 inlet;
#X obj -451 426 *~;
#X obj -391 426 *~;
#X obj -328 425 *~;
#X obj -263 426 *~;
#X obj -436 107 expr if ($f1 <= 1 \, 1-$f1 \, 0);
#X floatatom -436 397 5 0 0 0 - - -;
#X floatatom -376 395 5 0 0 0 - - -;
#X floatatom -313 395 5 0 0 0 - - -;
#X floatatom -248 395 5 0 0 0 - - -;
#X obj -376 181 expr if ($f1 <= 0 \, 0 \, $f1);
#X obj -376 157 expr if ($f1 <= 1 \, $f1 \, 2-$f1);
#X obj -313 253 expr if ($f1 <= 0 \, 0 \, $f1);
#X obj -313 229 expr if ($f1 <= 2 \, $f1-1 \, 3-$f1);
#X obj -248 339 expr if ($f1 <= 0 \, 0 \, $f1);
#X obj -248 315 expr if ($f1 <= 3 \, $f1-2 \, 4-$f1);
#X obj -451 21 inlet~;
#X obj -392 22 inlet~;
#X obj -328 21 inlet~;
#X obj -263 21 inlet~;
#X connect 1 0 6 0;
#X connect 1 0 12 0;
#X connect 1 0 14 0;
#X connect 1 0 16 0;
#X connect 2 0 0 0;
#X connect 3 0 0 0;
#X connect 4 0 0 0;
#X connect 5 0 0 0;
#X connect 6 0 7 0;
#X connect 7 0 2 1;
#X connect 8 0 3 1;
#X connect 9 0 4 1;
#X connect 10 0 5 1;
#X connect 11 0 8 0;
#X connect 12 0 11 0;
#X connect 13 0 9 0;
#X connect 14 0 13 0;
#X connect 15 0 10 0;
#X connect 16 0 15 0;
#X connect 17 0 2 0;
#X connect 18 0 3 0;
#X connect 19 0 4 0;
#X connect 20 0 5 0;
#X restore -565 -52 pd Wellenform-Mischer;
#X obj -244 -253 hsl 128 15 150 16000 1 0 empty empty empty -2 -8 0
10 -262144 -1 -1 3200 1;
#X floatatom -247 -227 10 0 0 0 - - -;
#X text -23 -178 Sinus;
#X text -23 -144 Sägezahn;
#X text -23 -76 Rechteck;
#X text -23 -110 Dreieck;
#X obj -78 -183 vsl 15 128 3 0 0 0 empty empty empty 0 -9 0 10 -262144
-1 -1 12700 1;
#X obj -61 -185 vradio 33 1 0 4 empty empty empty 0 -8 0 10 -262144
-1 -1 0;
#N canvas 132 392 450 255 Sinus 0;
#X obj 105 79 osc~;
#X obj 105 116 outlet~;
#X obj 105 42 r Frequenz2;
#X connect 0 0 1 0;
#X connect 2 0 0 0;
#X restore -247 -159 pd Sinus;
#N canvas 18 336 450 300 Saegezahn 0;
#X obj 137 169 outlet~;
#X obj 137 120 phasor~;
#X obj 137 70 r Frequenz2;
#X connect 1 0 0 0;
#X connect 2 0 1 0;
#X restore -215 -137 pd Saegezahn;
#N canvas 45 524 450 301 Dreieck 0;
#X obj 105 271 outlet~;
#X obj 105 96 phasor~;
#X obj 169 95 phasor~;
#X obj 169 60 * -1;
#X obj 105 131 *~ 2;
#X obj 105 166 -~ 1;
#X obj 169 130 *~ 2;
#X obj 169 165 -~ 1;
#X obj 105 236 +~;
#X msg 216 59 0;
#X obj 216 35 bng 15 250 50 0 empty empty empty 17 7 0 10 -262144 -1
-1;
#X obj 105 201 clip~ 0 1;
#X obj 169 200 clip~ 0 1;
#X obj 105 28 r Frequenz2;
#X connect 1 0 4 0;
#X connect 2 0 6 0;
#X connect 3 0 2 0;
#X connect 4 0 5 0;
#X connect 5 0 11 0;
#X connect 6 0 7 0;
#X connect 7 0 12 0;
#X connect 8 0 0 0;
#X connect 9 0 2 1;
#X connect 9 0 1 1;
#X connect 10 0 9 0;
#X connect 11 0 8 0;
#X connect 12 0 8 1;
#X connect 13 0 1 0;
#X connect 13 0 3 0;
#X restore -185 -110 pd Dreieck;
#N canvas 68 679 450 300 Rechteck 0;
#X obj 98 223 outlet~;
#X obj 100 95 phasor~;
#X obj 173 95 phasor~;
#X obj 173 67 * -1;
#X obj 100 139 +~;
#X obj 99 178 -~ 1;
#X msg 139 67 0;
#X msg 212 66 0.5;
#X obj 176 30 bng 15 250 50 0 empty empty empty 17 7 0 10 -262144 -1
-1;
#X obj 100 14 r Frequenz2;
#X connect 1 0 4 0;
#X connect 2 0 4 1;
#X connect 3 0 2 0;
#X connect 4 0 5 0;
#X connect 5 0 0 0;
#X connect 6 0 1 1;
#X connect 7 0 2 1;
#X connect 8 0 6 0;
#X connect 8 0 7 0;
#X connect 9 0 3 0;
#X connect 9 0 1 0;
#X restore -153 -87 pd Rechteck;
#N canvas 116 356 900 599 Wellenform-Mischer 0;
#X obj -452 496 outlet~;
#X obj -101 19 inlet;
#X obj -451 426 *~;
#X obj -391 426 *~;
#X obj -328 425 *~;
#X obj -263 426 *~;
#X obj -436 107 expr if ($f1 <= 1 \, 1-$f1 \, 0);
#X floatatom -436 397 5 0 0 0 - - -;
#X floatatom -376 395 5 0 0 0 - - -;
#X floatatom -313 395 5 0 0 0 - - -;
#X floatatom -248 395 5 0 0 0 - - -;
#X obj -376 181 expr if ($f1 <= 0 \, 0 \, $f1);
#X obj -376 157 expr if ($f1 <= 1 \, $f1 \, 2-$f1);
#X obj -313 253 expr if ($f1 <= 0 \, 0 \, $f1);
#X obj -313 229 expr if ($f1 <= 2 \, $f1-1 \, 3-$f1);
#X obj -248 339 expr if ($f1 <= 0 \, 0 \, $f1);
#X obj -248 315 expr if ($f1 <= 3 \, $f1-2 \, 4-$f1);
#X obj -451 21 inlet~;
#X obj -392 22 inlet~;
#X obj -328 21 inlet~;
#X obj -263 21 inlet~;
#X connect 1 0 6 0;
#X connect 1 0 12 0;
#X connect 1 0 14 0;
#X connect 1 0 16 0;
#X connect 2 0 0 0;
#X connect 3 0 0 0;
#X connect 4 0 0 0;
#X connect 5 0 0 0;
#X connect 6 0 7 0;
#X connect 7 0 2 1;
#X connect 8 0 3 1;
#X connect 9 0 4 1;
#X connect 10 0 5 1;
#X connect 11 0 8 0;
#X connect 12 0 11 0;
#X connect 13 0 9 0;
#X connect 14 0 13 0;
#X connect 15 0 10 0;
#X connect 16 0 15 0;
#X connect 17 0 2 0;
#X connect 18 0 3 0;
#X connect 19 0 4 0;
#X connect 20 0 5 0;
#X restore -246 -52 pd Wellenform-Mischer;
#X text -248 -289 Oscillator 2;
#X obj -563 14 *~ 0.5;
#X obj -246 9 *~ 0.5;
#X obj -566 -199 send Frequenz1;
#X obj -247 -198 send Frequenz2;
#X connect 2 0 3 0;
#X connect 3 0 31 0;
#X connect 8 0 14 4;
#X connect 9 0 8 0;
#X connect 10 0 14 0;
#X connect 11 0 14 1;
#X connect 12 0 14 2;
#X connect 13 0 14 3;
#X connect 14 0 29 0;
#X connect 15 0 16 0;
#X connect 16 0 32 0;
#X connect 21 0 27 4;
#X connect 22 0 21 0;
#X connect 23 0 27 0;
#X connect 24 0 27 1;
#X connect 25 0 27 2;
#X connect 26 0 27 3;
#X connect 27 0 30 0;
#X connect 29 0 0 0;
#X connect 29 0 0 1;
#X connect 30 0 0 0;
#X connect 30 0 0 1;
