#N canvas 370 26 1299 837 10;
#X obj -1228 -741 dac~;
#X text -1370 -1221 Oscillator 1;
#X text -1166 -1178 Sinus;
#X text -1166 -1114 Sägezahn;
#X text -1166 -1082 Rechteck;
#X text -1166 -1146 Dreieck;
#X obj -1224 -1186 vsl 15 128 3 0 0 0 empty empty empty 0 -9 0 10 -262144
-1 -1 8467 1;
#X obj -1207 -1188 vradio 33 1 0 4 empty empty empty 0 -8 0 10 -262144
-1 -1 1;
#N canvas 0 0 450 300 (subpatch) 0;
#X array signal1 100 float 1;
#A 0 0.402194 0.386496 0.370798 0.3551 0.339402 0.323705 0.308007 0.29231
0.276612 0.260915 0.245218 0.229521 0.213824 0.198127 0.182431 0.166734
0.151038 0.135342 0.119646 0.10395 0.088255 0.0725596 0.0568644 0.0411695
0.0254748 0.00978021 0.00575683 0.0214513 0.037146 0.0528409 0.0685361
0.0842314 0.0999268 0.115622 0.131318 0.147014 0.16271 0.178407 0.194103
0.2098 0.225497 0.241194 0.256891 0.272588 0.288285 0.303983 0.319681
0.335378 0.351076 0.366774 0.382472 0.39817 0.413868 0.429566 0.445264
0.460962 0.476661 0.492359 0.508057 0.523755 0.539454 0.555152 0.57085
0.586548 0.602246 0.617944 0.633642 0.64934 0.665038 0.680735 0.696433
0.712131 0.727828 0.743525 0.759222 0.774919 0.790616 0.806313 0.822009
0.837705 0.853402 0.869098 0.884793 0.900489 0.916185 0.93188 0.947575
0.96327 0.978965 0.994659 0.989646 0.973952 0.958257 0.942562 0.926867
0.911172 0.895476 0.879781 0.864085 0.848388;
#X coords 0 1 99 -1 200 100 1 0 0;
#X restore -1306 -1027 graph;
#X obj -1367 -919 tabwrite~ signal1;
#X obj -1361 -1029 tgl 15 0 empty empty empty 17 7 0 10 -262144 -1
-1 1 1;
#X obj -1361 -945 metro 50;
#X obj -1349 -1152 hradio 19 1 1 5 empty empty empty 0 -8 0 10 -262144
-1 -1 2;
#X obj -1365 -1187 hsl 128 15 0 100 0 0 FreqSlider1 empty empty -2
-8 0 10 -262144 -1 -1 4100 1;
#X text -1290 -1132 Oktave;
#X text -1344 -1168 2' 4' 8' 16' 32';
#N canvas 12 99 544 693 OSC1 0;
#X obj -1116 -754 send Frequenz1;
#X floatatom -1116 -780 5 0 0 0 - - -;
#X obj -1116 -810 expr $f1*($f2/100)+$f2;
#X msg -947 -876 65.4064;
#X msg -888 -876 130.813;
#X msg -776 -876 523.251;
#X msg -721 -876 1046.5;
#X obj -946 -919 sel 0 1 2 3 4;
#X obj -1058 -921 trigger bang bang;
#X floatatom -1116 -865 5 0 0 0 - - -;
#X msg -831 -876 261.626;
#X obj -1116 -973 inlet;
#X obj -946 -970 inlet;
#X obj -655 -967 inlet;
#N canvas 123 354 450 255 Sinus 0;
#X obj 105 79 osc~;
#X obj 105 116 outlet~;
#X text 102 14 comment;
#X obj 105 38 r Frequenz1;
#X connect 0 0 1 0;
#X connect 3 0 0 0;
#X restore -906 -761 pd Sinus;
#N canvas 90 581 450 300 Saegezahn 0;
#X obj 137 169 outlet~;
#X obj 137 120 phasor~;
#X obj 137 73 r Frequenz1;
#X connect 1 0 0 0;
#X connect 2 0 1 0;
#X restore -843 -712 pd Saegezahn;
#N canvas 47 397 450 300 Dreieck 0;
#X obj 105 271 outlet~;
#X obj 105 96 phasor~;
#X obj 169 95 phasor~;
#X obj 169 60 * -1;
#X obj 105 131 *~ 2;
#X obj 105 166 -~ 1;
#X obj 169 130 *~ 2;
#X obj 169 165 -~ 1;
#X obj 105 236 +~;
#X msg 216 59 0;
#X obj 216 35 bng 15 250 50 0 empty empty empty 17 7 0 10 -262144 -1
-1;
#X obj 105 201 clip~ 0 1;
#X obj 169 200 clip~ 0 1;
#X obj 105 29 r Frequenz1;
#X connect 1 0 4 0;
#X connect 2 0 6 0;
#X connect 3 0 2 0;
#X connect 4 0 5 0;
#X connect 5 0 11 0;
#X connect 6 0 7 0;
#X connect 7 0 12 0;
#X connect 8 0 0 0;
#X connect 9 0 2 1;
#X connect 9 0 1 1;
#X connect 10 0 9 0;
#X connect 11 0 8 0;
#X connect 12 0 8 1;
#X connect 13 0 3 0;
#X connect 13 0 1 0;
#X restore -875 -735 pd Dreieck;
#N canvas 175 61 450 300 Rechteck 0;
#X obj 98 223 outlet~;
#X obj 100 95 phasor~;
#X obj 173 95 phasor~;
#X obj 173 67 * -1;
#X obj 100 139 +~;
#X obj 99 178 -~ 1;
#X msg 139 67 0;
#X msg 212 66 0.5;
#X obj 176 30 bng 15 250 50 0 empty INITBANG empty 17 7 0 10 -262144
-1 -1;
#X obj 100 10 r Frequenz1;
#X connect 1 0 4 0;
#X connect 2 0 4 1;
#X connect 3 0 2 0;
#X connect 4 0 5 0;
#X connect 5 0 0 0;
#X connect 6 0 1 1;
#X connect 7 0 2 1;
#X connect 8 0 6 0;
#X connect 8 0 7 0;
#X connect 9 0 1 0;
#X connect 9 0 3 0;
#X restore -812 -689 pd Rechteck;
#N canvas 116 356 900 599 Wellenform-Mischer 0;
#X obj -452 496 outlet~;
#X obj -101 19 inlet;
#X obj -451 426 *~;
#X obj -391 426 *~;
#X obj -328 425 *~;
#X obj -263 426 *~;
#X obj -436 107 expr if ($f1 <= 1 \, 1-$f1 \, 0);
#X floatatom -436 397 5 0 0 0 - - -;
#X floatatom -376 395 5 0 0 0 - - -;
#X floatatom -313 395 5 0 0 0 - - -;
#X floatatom -248 395 5 0 0 0 - - -;
#X obj -376 181 expr if ($f1 <= 0 \, 0 \, $f1);
#X obj -376 157 expr if ($f1 <= 1 \, $f1 \, 2-$f1);
#X obj -313 253 expr if ($f1 <= 0 \, 0 \, $f1);
#X obj -313 229 expr if ($f1 <= 2 \, $f1-1 \, 3-$f1);
#X obj -248 339 expr if ($f1 <= 0 \, 0 \, $f1);
#X obj -248 315 expr if ($f1 <= 3 \, $f1-2 \, 4-$f1);
#X obj -451 21 inlet~;
#X obj -392 22 inlet~;
#X obj -328 21 inlet~;
#X obj -263 21 inlet~;
#X connect 1 0 6 0;
#X connect 1 0 12 0;
#X connect 1 0 14 0;
#X connect 1 0 16 0;
#X connect 2 0 0 0;
#X connect 3 0 0 0;
#X connect 4 0 0 0;
#X connect 5 0 0 0;
#X connect 6 0 7 0;
#X connect 7 0 2 1;
#X connect 8 0 3 1;
#X connect 9 0 4 1;
#X connect 10 0 5 1;
#X connect 11 0 8 0;
#X connect 12 0 11 0;
#X connect 13 0 9 0;
#X connect 14 0 13 0;
#X connect 15 0 10 0;
#X connect 16 0 15 0;
#X connect 17 0 2 0;
#X connect 18 0 3 0;
#X connect 19 0 4 0;
#X connect 20 0 5 0;
#X restore -905 -654 pd Wellenform-Mischer;
#X obj -906 -592 outlet~;
#X connect 1 0 0 0;
#X connect 2 0 1 0;
#X connect 3 0 2 1;
#X connect 4 0 2 1;
#X connect 5 0 2 1;
#X connect 6 0 2 1;
#X connect 7 0 3 0;
#X connect 7 1 4 0;
#X connect 7 2 10 0;
#X connect 7 3 5 0;
#X connect 7 4 6 0;
#X connect 8 0 9 0;
#X connect 9 0 2 0;
#X connect 10 0 2 1;
#X connect 11 0 9 0;
#X connect 12 0 7 0;
#X connect 12 0 8 0;
#X connect 13 0 18 4;
#X connect 14 0 18 0;
#X connect 15 0 18 2;
#X connect 16 0 18 1;
#X connect 17 0 18 3;
#X connect 18 0 19 0;
#X restore -1368 -1055 pd OSC1;
#X text -862 -1180 Sinus;
#X text -862 -1116 Sägezahn;
#X text -862 -1084 Rechteck;
#X text -862 -1148 Dreieck;
#X obj -920 -1188 vsl 15 128 3 0 0 0 empty empty empty 0 -9 0 10 -262144
-1 -1 8467 1;
#X obj -903 -1190 vradio 33 1 0 4 empty empty empty 0 -8 0 10 -262144
-1 -1 1;
#X obj -1045 -1154 hradio 19 1 1 5 empty empty empty 0 -8 0 10 -262144
-1 -1 1;
#X obj -1061 -1189 hsl 128 15 0 100 0 0 empty FreqSlider1 empty -2
-8 0 10 -262144 -1 -1 4100 1;
#X text -986 -1134 Oktave;
#X text -1040 -1170 2' 4' 8' 16' 32';
#X text -1066 -1223 Oscillator 2;
#N canvas 0 0 814 917 OSC2 0;
#X floatatom -1106 -770 5 0 0 0 - - -;
#X obj -1106 -800 expr $f1*($f2/100)+$f2;
#X msg -937 -866 65.4064;
#X msg -878 -866 130.813;
#X msg -766 -866 523.251;
#X msg -711 -866 1046.5;
#X obj -936 -909 sel 0 1 2 3 4;
#X obj -1048 -911 trigger bang bang;
#X floatatom -1106 -855 5 0 0 0 - - -;
#X msg -821 -866 261.626;
#X obj -1106 -963 inlet;
#X obj -936 -960 inlet;
#X obj -645 -957 inlet;
#N canvas 123 354 450 255 Sinus 0;
#X obj 105 79 osc~;
#X obj 105 116 outlet~;
#X text 102 14 comment;
#X obj 105 38 r Frequenz2;
#X connect 0 0 1 0;
#X connect 3 0 0 0;
#X restore -896 -751 pd Sinus;
#N canvas 90 581 450 300 Saegezahn 0;
#X obj 137 169 outlet~;
#X obj 137 120 phasor~;
#X obj 137 73 r Frequenz2;
#X connect 1 0 0 0;
#X connect 2 0 1 0;
#X restore -833 -702 pd Saegezahn;
#N canvas 47 397 450 300 Dreieck 0;
#X obj 105 271 outlet~;
#X obj 105 96 phasor~;
#X obj 169 95 phasor~;
#X obj 169 60 * -1;
#X obj 105 131 *~ 2;
#X obj 105 166 -~ 1;
#X obj 169 130 *~ 2;
#X obj 169 165 -~ 1;
#X obj 105 236 +~;
#X msg 216 59 0;
#X obj 216 35 bng 15 250 50 0 empty empty empty 17 7 0 10 -262144 -1
-1;
#X obj 105 201 clip~ 0 1;
#X obj 169 200 clip~ 0 1;
#X obj 105 29 r Frequenz2;
#X connect 1 0 4 0;
#X connect 2 0 6 0;
#X connect 3 0 2 0;
#X connect 4 0 5 0;
#X connect 5 0 11 0;
#X connect 6 0 7 0;
#X connect 7 0 12 0;
#X connect 8 0 0 0;
#X connect 9 0 2 1;
#X connect 9 0 1 1;
#X connect 10 0 9 0;
#X connect 11 0 8 0;
#X connect 12 0 8 1;
#X connect 13 0 3 0;
#X connect 13 0 1 0;
#X restore -865 -725 pd Dreieck;
#N canvas 175 61 450 300 Rechteck 0;
#X obj 98 223 outlet~;
#X obj 100 95 phasor~;
#X obj 173 95 phasor~;
#X obj 173 67 * -1;
#X obj 100 139 +~;
#X obj 99 178 -~ 1;
#X msg 139 67 0;
#X msg 212 66 0.5;
#X obj 176 30 bng 15 250 50 0 empty INITBANG empty 17 7 0 10 -262144
-1 -1;
#X obj 100 10 r Frequenz2;
#X connect 1 0 4 0;
#X connect 2 0 4 1;
#X connect 3 0 2 0;
#X connect 4 0 5 0;
#X connect 5 0 0 0;
#X connect 6 0 1 1;
#X connect 7 0 2 1;
#X connect 8 0 6 0;
#X connect 8 0 7 0;
#X connect 9 0 1 0;
#X connect 9 0 3 0;
#X restore -802 -679 pd Rechteck;
#N canvas 116 356 900 599 Wellenform-Mischer 0;
#X obj -452 496 outlet~;
#X obj -101 19 inlet;
#X obj -451 426 *~;
#X obj -391 426 *~;
#X obj -328 425 *~;
#X obj -263 426 *~;
#X obj -436 107 expr if ($f1 <= 1 \, 1-$f1 \, 0);
#X floatatom -436 397 5 0 0 0 - - -;
#X floatatom -376 395 5 0 0 0 - - -;
#X floatatom -313 395 5 0 0 0 - - -;
#X floatatom -248 395 5 0 0 0 - - -;
#X obj -376 181 expr if ($f1 <= 0 \, 0 \, $f1);
#X obj -376 157 expr if ($f1 <= 1 \, $f1 \, 2-$f1);
#X obj -313 253 expr if ($f1 <= 0 \, 0 \, $f1);
#X obj -313 229 expr if ($f1 <= 2 \, $f1-1 \, 3-$f1);
#X obj -248 339 expr if ($f1 <= 0 \, 0 \, $f1);
#X obj -248 315 expr if ($f1 <= 3 \, $f1-2 \, 4-$f1);
#X obj -451 21 inlet~;
#X obj -392 22 inlet~;
#X obj -328 21 inlet~;
#X obj -263 21 inlet~;
#X connect 1 0 6 0;
#X connect 1 0 12 0;
#X connect 1 0 14 0;
#X connect 1 0 16 0;
#X connect 2 0 0 0;
#X connect 3 0 0 0;
#X connect 4 0 0 0;
#X connect 5 0 0 0;
#X connect 6 0 7 0;
#X connect 7 0 2 1;
#X connect 8 0 3 1;
#X connect 9 0 4 1;
#X connect 10 0 5 1;
#X connect 11 0 8 0;
#X connect 12 0 11 0;
#X connect 13 0 9 0;
#X connect 14 0 13 0;
#X connect 15 0 10 0;
#X connect 16 0 15 0;
#X connect 17 0 2 0;
#X connect 18 0 3 0;
#X connect 19 0 4 0;
#X connect 20 0 5 0;
#X restore -895 -644 pd Wellenform-Mischer;
#X obj -896 -582 outlet~;
#X obj -1106 -744 send Frequenz2;
#X connect 0 0 19 0;
#X connect 1 0 0 0;
#X connect 2 0 1 1;
#X connect 3 0 1 1;
#X connect 4 0 1 1;
#X connect 5 0 1 1;
#X connect 6 0 2 0;
#X connect 6 1 3 0;
#X connect 6 2 9 0;
#X connect 6 3 4 0;
#X connect 6 4 5 0;
#X connect 7 0 8 0;
#X connect 8 0 1 0;
#X connect 9 0 1 1;
#X connect 10 0 8 0;
#X connect 11 0 6 0;
#X connect 11 0 7 0;
#X connect 12 0 17 4;
#X connect 13 0 17 0;
#X connect 14 0 17 2;
#X connect 15 0 17 1;
#X connect 16 0 17 3;
#X connect 17 0 18 0;
#X restore -1064 -1057 pd OSC2;
#N canvas 0 0 450 300 (subpatch) 0;
#X array signal2 100 float 1;
#A 0 0.355567 0.363416 0.371265 0.379114 0.386963 0.394812 0.402661
0.41051 0.418359 0.426208 0.434058 0.441907 0.449756 0.457605 0.465454
0.473303 0.481152 0.489001 0.49685 0.5047 0.512549 0.520398 0.528247
0.536096 0.543945 0.551794 0.559643 0.567492 0.575342 0.583191 0.59104
0.598889 0.606738 0.614587 0.622436 0.630285 0.638134 0.645983 0.653831
0.66168 0.669529 0.677378 0.685227 0.693076 0.700924 0.708773 0.716622
0.724471 0.732319 0.740168 0.748016 0.755865 0.763713 0.771562 0.77941
0.787259 0.795107 0.802955 0.810804 0.818652 0.8265 0.834348 0.842196
0.850044 0.857893 0.865741 0.873589 0.881436 0.889284 0.897132 0.90498
0.912828 0.920675 0.928523 0.936371 0.944218 0.952066 0.959913 0.96776
0.975608 0.983455 0.991302 0.99915 0.993003 0.985156 0.977309 0.969461
0.961614 0.953767 0.945919 0.938072 0.930224 0.922376 0.914529 0.906681
0.898833 0.890985 0.883137 0.87529 0.867442;
#X coords 0 1 99 -1 200 100 1 0 0;
#X restore -1002 -1026 graph;
#X obj -1057 -1028 tgl 15 0 empty empty empty 17 7 0 10 -262144 -1
-1 1 1;
#X obj -1057 -944 metro 50;
#X obj -1063 -918 tabwrite~ signal2;
#X obj -1063 -874 *~ 0.5;
#X obj -1367 -871 *~ 0.5;
#X connect 6 0 16 2;
#X connect 7 0 6 0;
#X connect 10 0 11 0;
#X connect 11 0 9 0;
#X connect 12 0 16 1;
#X connect 13 0 16 0;
#X connect 16 0 9 0;
#X connect 16 0 34 0;
#X connect 21 0 28 2;
#X connect 22 0 21 0;
#X connect 23 0 28 1;
#X connect 24 0 28 0;
#X connect 28 0 32 0;
#X connect 28 0 33 0;
#X connect 30 0 31 0;
#X connect 31 0 32 0;
#X connect 33 0 0 0;
#X connect 33 0 0 1;
#X connect 34 0 0 0;
#X connect 34 0 0 1;
