#N canvas 788 100 782 837 10;
#X obj -1269 -711 dac~;
#X text -1241 -1162 Oscillator 1;
#X text -1037 -1119 Sinus;
#X text -1037 -1055 Sägezahn;
#X text -1037 -1023 Rechteck;
#X text -1037 -1087 Dreieck;
#X obj -1095 -1127 vsl 15 128 3 0 0 0 empty empty empty 0 -9 0 10 -262144
-1 -1 8467 1;
#X obj -1078 -1129 vradio 33 1 0 4 empty empty empty 0 -8 0 10 -262144
-1 -1 1;
#N canvas 0 0 450 300 (subpatch) 0;
#X array signal1 100 float 1;
#A 0 -0.815912 -0.84421 -0.87033 -0.894196 -0.915759 -0.934964 -0.951762
-0.966109 -0.977969 -0.987309 -0.994088 -0.998308 -0.999956 -0.99903
-0.995531 -0.989469 -0.98086 -0.969709 -0.956056 -0.939942 -0.921408
-0.900501 -0.877275 -0.851791 -0.824104 -0.794286 -0.762424 -0.728599
-0.692898 -0.655412 -0.616239 -0.575475 -0.533221 -0.489594 -0.444707
-0.398675 -0.351616 -0.303652 -0.254905 -0.205496 -0.155559 -0.105221
-0.0546134 -0.0038647 0.0468944 0.0975333 0.14792 0.197924 0.247418
0.296275 0.344369 0.391577 0.437777 0.482846 0.526666 0.569129 0.610126
0.649553 0.687307 0.723291 0.757412 0.789568 0.819692 0.847704 0.873534
0.897115 0.918386 0.937292 0.953767 0.967785 0.97931 0.988314 0.994773
0.99867 0.999996 0.998735 0.994895 0.988493 0.979545 0.968076 0.954114
0.937695 0.918854 0.897635 0.874106 0.848326 0.820361 0.790284 0.758172
0.724106 0.688162 0.650446 0.611056 0.570093 0.527662 0.483871 0.438834
0.392659 0.345473 0.297397;
#X coords 0 1 99 -1 200 100 1 0 0;
#X restore -1177 -968 graph;
#X obj -1238 -860 tabwrite~ signal1;
#X obj -1232 -970 tgl 15 0 empty empty empty 17 7 0 10 -262144 -1 -1
0 1;
#X obj -1232 -886 metro 50;
#X obj -1220 -1093 hradio 19 1 0 5 empty empty empty 0 -8 0 10 -262144
-1 -1 2;
#X obj -1236 -1128 hsl 128 15 0 100 0 0 FreqSlider1 empty empty -2
-8 0 10 -262144 -1 -1 3726 1;
#X text -1161 -1073 Oktave;
#X text -1215 -1109 2' 4' 8' 16' 32';
#N canvas 11 281 544 693 OSC1 0;
#X obj -1116 -754 send Frequenz1;
#X floatatom -1116 -780 5 0 0 0 - - -;
#X obj -1116 -810 expr $f1*($f2/100)+$f2;
#X msg -947 -876 65.4064;
#X msg -888 -876 130.813;
#X msg -776 -876 523.251;
#X msg -721 -876 1046.5;
#X obj -946 -919 sel 0 1 2 3 4;
#X obj -1058 -921 trigger bang bang;
#X floatatom -1116 -865 5 0 0 0 - - -;
#X msg -831 -876 261.626;
#X obj -1116 -973 inlet;
#X obj -946 -970 inlet;
#X obj -655 -967 inlet;
#N canvas 123 354 450 255 Sinus 0;
#X obj 105 79 osc~;
#X obj 105 116 outlet~;
#X text 102 14 comment;
#X obj 105 38 r Frequenz1;
#X connect 0 0 1 0;
#X connect 3 0 0 0;
#X restore -906 -761 pd Sinus;
#N canvas 90 581 450 300 Saegezahn 0;
#X obj 137 169 outlet~;
#X obj 137 120 phasor~;
#X obj 137 73 r Frequenz1;
#X connect 1 0 0 0;
#X connect 2 0 1 0;
#X restore -843 -712 pd Saegezahn;
#N canvas 47 397 450 300 Dreieck 0;
#X obj 105 271 outlet~;
#X obj 105 96 phasor~;
#X obj 169 95 phasor~;
#X obj 169 60 * -1;
#X obj 105 131 *~ 2;
#X obj 105 166 -~ 1;
#X obj 169 130 *~ 2;
#X obj 169 165 -~ 1;
#X obj 105 236 +~;
#X msg 216 59 0;
#X obj 216 35 bng 15 250 50 0 empty empty empty 17 7 0 10 -262144 -1
-1;
#X obj 105 201 clip~ 0 1;
#X obj 169 200 clip~ 0 1;
#X obj 105 29 r Frequenz1;
#X connect 1 0 4 0;
#X connect 2 0 6 0;
#X connect 3 0 2 0;
#X connect 4 0 5 0;
#X connect 5 0 11 0;
#X connect 6 0 7 0;
#X connect 7 0 12 0;
#X connect 8 0 0 0;
#X connect 9 0 2 1;
#X connect 9 0 1 1;
#X connect 10 0 9 0;
#X connect 11 0 8 0;
#X connect 12 0 8 1;
#X connect 13 0 3 0;
#X connect 13 0 1 0;
#X restore -875 -735 pd Dreieck;
#N canvas 175 61 450 300 Rechteck 0;
#X obj 98 223 outlet~;
#X obj 100 95 phasor~;
#X obj 173 95 phasor~;
#X obj 173 67 * -1;
#X obj 100 139 +~;
#X obj 99 178 -~ 1;
#X msg 139 67 0;
#X msg 212 66 0.5;
#X obj 100 10 r Frequenz1;
#X obj 179 35 loadbang;
#X connect 1 0 4 0;
#X connect 2 0 4 1;
#X connect 3 0 2 0;
#X connect 4 0 5 0;
#X connect 5 0 0 0;
#X connect 6 0 1 1;
#X connect 7 0 2 1;
#X connect 8 0 1 0;
#X connect 8 0 3 0;
#X connect 9 0 7 0;
#X connect 9 0 6 0;
#X restore -812 -689 pd Rechteck;
#N canvas 116 356 900 599 Wellenform-Mischer 0;
#X obj -452 496 outlet~;
#X obj -101 19 inlet;
#X obj -451 426 *~;
#X obj -391 426 *~;
#X obj -328 425 *~;
#X obj -263 426 *~;
#X obj -436 107 expr if ($f1 <= 1 \, 1-$f1 \, 0);
#X floatatom -436 397 5 0 0 0 - - -;
#X floatatom -376 395 5 0 0 0 - - -;
#X floatatom -313 395 5 0 0 0 - - -;
#X floatatom -248 395 5 0 0 0 - - -;
#X obj -376 181 expr if ($f1 <= 0 \, 0 \, $f1);
#X obj -376 157 expr if ($f1 <= 1 \, $f1 \, 2-$f1);
#X obj -313 253 expr if ($f1 <= 0 \, 0 \, $f1);
#X obj -313 229 expr if ($f1 <= 2 \, $f1-1 \, 3-$f1);
#X obj -248 339 expr if ($f1 <= 0 \, 0 \, $f1);
#X obj -248 315 expr if ($f1 <= 3 \, $f1-2 \, 4-$f1);
#X obj -451 21 inlet~;
#X obj -392 22 inlet~;
#X obj -328 21 inlet~;
#X obj -263 21 inlet~;
#X connect 1 0 6 0;
#X connect 1 0 12 0;
#X connect 1 0 14 0;
#X connect 1 0 16 0;
#X connect 2 0 0 0;
#X connect 3 0 0 0;
#X connect 4 0 0 0;
#X connect 5 0 0 0;
#X connect 6 0 7 0;
#X connect 7 0 2 1;
#X connect 8 0 3 1;
#X connect 9 0 4 1;
#X connect 10 0 5 1;
#X connect 11 0 8 0;
#X connect 12 0 11 0;
#X connect 13 0 9 0;
#X connect 14 0 13 0;
#X connect 15 0 10 0;
#X connect 16 0 15 0;
#X connect 17 0 2 0;
#X connect 18 0 3 0;
#X connect 19 0 4 0;
#X connect 20 0 5 0;
#X restore -905 -654 pd Wellenform-Mischer;
#X obj -906 -592 outlet~;
#X connect 1 0 0 0;
#X connect 2 0 1 0;
#X connect 3 0 2 1;
#X connect 4 0 2 1;
#X connect 5 0 2 1;
#X connect 6 0 2 1;
#X connect 7 0 3 0;
#X connect 7 1 4 0;
#X connect 7 2 10 0;
#X connect 7 3 5 0;
#X connect 7 4 6 0;
#X connect 8 0 9 0;
#X connect 9 0 2 0;
#X connect 10 0 2 1;
#X connect 11 0 9 0;
#X connect 12 0 7 0;
#X connect 12 0 8 0;
#X connect 13 0 18 4;
#X connect 14 0 18 0;
#X connect 15 0 18 2;
#X connect 16 0 18 1;
#X connect 17 0 18 3;
#X connect 18 0 19 0;
#X restore -1239 -996 pd OSC1;
#X text -757 -1123 Sinus;
#X text -757 -1059 Sägezahn;
#X text -757 -1027 Rechteck;
#X text -757 -1091 Dreieck;
#X obj -815 -1131 vsl 15 128 3 0 0 0 empty empty empty 0 -9 0 10 -262144
-1 -1 4233 1;
#X obj -798 -1133 vradio 33 1 0 4 empty empty empty 0 -8 0 10 -262144
-1 -1 2;
#X obj -940 -1097 hradio 19 1 0 5 empty empty empty 0 -8 0 10 -262144
-1 -1 3;
#X obj -956 -1132 hsl 128 15 -7 7 0 0 empty empty empty -2 -8 0 10
-262144 -1 -1 12700 1;
#X text -881 -1077 Oktave;
#X text -935 -1113 2' 4' 8' 16' 32';
#X text -961 -1166 Oscillator 2;
#N canvas 1078 51 814 917 OSC2 0;
#X floatatom -1241 -718 5 0 0 0 - - -;
#X obj -1106 -800 expr $f1*($f2/100)+$f2;
#X msg -937 -866 65.4064;
#X msg -878 -866 130.813;
#X msg -766 -866 523.251;
#X msg -711 -866 1046.5;
#X obj -936 -909 sel 0 1 2 3 4;
#X obj -1048 -911 trigger bang bang;
#X floatatom -1106 -855 5 0 0 0 - - -;
#X msg -821 -866 261.626;
#X obj -1241 -836 inlet;
#X obj -936 -960 inlet;
#X obj -645 -957 inlet;
#N canvas 123 354 450 255 Sinus 0;
#X obj 105 79 osc~;
#X obj 105 116 outlet~;
#X text 102 14 comment;
#X obj 105 38 r Frequenz2;
#X connect 0 0 1 0;
#X connect 3 0 0 0;
#X restore -896 -751 pd Sinus;
#N canvas 90 581 450 300 Saegezahn 0;
#X obj 137 169 outlet~;
#X obj 137 120 phasor~;
#X obj 137 73 r Frequenz2;
#X connect 1 0 0 0;
#X connect 2 0 1 0;
#X restore -833 -702 pd Saegezahn;
#N canvas 47 397 450 300 Dreieck 0;
#X obj 105 271 outlet~;
#X obj 105 96 phasor~;
#X obj 169 95 phasor~;
#X obj 169 60 * -1;
#X obj 105 131 *~ 2;
#X obj 105 166 -~ 1;
#X obj 169 130 *~ 2;
#X obj 169 165 -~ 1;
#X obj 105 236 +~;
#X msg 216 59 0;
#X obj 216 35 bng 15 250 50 0 empty empty empty 17 7 0 10 -262144 -1
-1;
#X obj 105 201 clip~ 0 1;
#X obj 169 200 clip~ 0 1;
#X obj 105 29 r Frequenz2;
#X connect 1 0 4 0;
#X connect 2 0 6 0;
#X connect 3 0 2 0;
#X connect 4 0 5 0;
#X connect 5 0 11 0;
#X connect 6 0 7 0;
#X connect 7 0 12 0;
#X connect 8 0 0 0;
#X connect 9 0 2 1;
#X connect 9 0 1 1;
#X connect 10 0 9 0;
#X connect 11 0 8 0;
#X connect 12 0 8 1;
#X connect 13 0 3 0;
#X connect 13 0 1 0;
#X restore -865 -725 pd Dreieck;
#N canvas 175 61 450 300 Rechteck 0;
#X obj 98 223 outlet~;
#X obj 100 95 phasor~;
#X obj 173 95 phasor~;
#X obj 173 67 * -1;
#X obj 100 139 +~;
#X obj 99 178 -~ 1;
#X msg 139 67 0;
#X msg 212 66 0.5;
#X obj 100 10 r Frequenz2;
#X obj 178 35 loadbang;
#X connect 1 0 4 0;
#X connect 2 0 4 1;
#X connect 3 0 2 0;
#X connect 4 0 5 0;
#X connect 5 0 0 0;
#X connect 6 0 1 1;
#X connect 7 0 2 1;
#X connect 8 0 1 0;
#X connect 8 0 3 0;
#X connect 9 0 7 0;
#X connect 9 0 6 0;
#X restore -802 -679 pd Rechteck;
#N canvas 116 356 900 599 Wellenform-Mischer 0;
#X obj -452 496 outlet~;
#X obj -101 19 inlet;
#X obj -451 426 *~;
#X obj -391 426 *~;
#X obj -328 425 *~;
#X obj -263 426 *~;
#X obj -436 107 expr if ($f1 <= 1 \, 1-$f1 \, 0);
#X floatatom -436 397 5 0 0 0 - - -;
#X floatatom -376 395 5 0 0 0 - - -;
#X floatatom -313 395 5 0 0 0 - - -;
#X floatatom -248 395 5 0 0 0 - - -;
#X obj -376 181 expr if ($f1 <= 0 \, 0 \, $f1);
#X obj -376 157 expr if ($f1 <= 1 \, $f1 \, 2-$f1);
#X obj -313 253 expr if ($f1 <= 0 \, 0 \, $f1);
#X obj -313 229 expr if ($f1 <= 2 \, $f1-1 \, 3-$f1);
#X obj -248 339 expr if ($f1 <= 0 \, 0 \, $f1);
#X obj -248 315 expr if ($f1 <= 3 \, $f1-2 \, 4-$f1);
#X obj -451 21 inlet~;
#X obj -392 22 inlet~;
#X obj -328 21 inlet~;
#X obj -263 21 inlet~;
#X connect 1 0 6 0;
#X connect 1 0 12 0;
#X connect 1 0 14 0;
#X connect 1 0 16 0;
#X connect 2 0 0 0;
#X connect 3 0 0 0;
#X connect 4 0 0 0;
#X connect 5 0 0 0;
#X connect 6 0 7 0;
#X connect 7 0 2 1;
#X connect 8 0 3 1;
#X connect 9 0 4 1;
#X connect 10 0 5 1;
#X connect 11 0 8 0;
#X connect 12 0 11 0;
#X connect 13 0 9 0;
#X connect 14 0 13 0;
#X connect 15 0 10 0;
#X connect 16 0 15 0;
#X connect 17 0 2 0;
#X connect 18 0 3 0;
#X connect 19 0 4 0;
#X connect 20 0 5 0;
#X restore -895 -644 pd Wellenform-Mischer;
#X obj -896 -582 outlet~;
#X obj -1241 -692 send Frequenz2;
#X obj -1061 -990 hsl 128 15 0 100 0 0 empty FreqSlider1 empty -2 -8
0 10 -262144 -1 -1 3726 1;
#X floatatom -1241 -792 5 0 0 0 - - -;
#X obj -1241 -762 expr $f2*pow(2 \, $f1/12);
#X connect 0 0 19 0;
#X connect 1 0 22 1;
#X connect 2 0 1 1;
#X connect 3 0 1 1;
#X connect 4 0 1 1;
#X connect 5 0 1 1;
#X connect 6 0 2 0;
#X connect 6 1 3 0;
#X connect 6 2 9 0;
#X connect 6 3 4 0;
#X connect 6 4 5 0;
#X connect 7 0 8 0;
#X connect 7 0 21 0;
#X connect 8 0 1 0;
#X connect 9 0 1 1;
#X connect 10 0 21 0;
#X connect 11 0 6 0;
#X connect 11 0 7 0;
#X connect 12 0 17 4;
#X connect 13 0 17 0;
#X connect 14 0 17 2;
#X connect 15 0 17 1;
#X connect 16 0 17 3;
#X connect 17 0 18 0;
#X connect 20 0 8 0;
#X connect 20 0 7 0;
#X connect 21 0 22 0;
#X connect 22 0 0 0;
#X restore -959 -1000 pd OSC2;
#N canvas 0 0 450 300 (subpatch) 0;
#X array signal2 100 float 1;
#A 0 0.358197 0.32597 0.293744 0.261517 0.229292 0.197067 0.164842
0.132619 0.100396 0.0681735 0.0359521 0.00373149 0.0283314 0.0605526
0.0927746 0.124997 0.157221 0.189445 0.22167 0.253896 0.286122 0.318348
0.350575 0.382803 0.41503 0.447258 0.479486 0.511714 0.543942 0.57617
0.608398 0.640626 0.672853 0.705079 0.737306 0.769531 0.801756 0.833981
0.866205 0.898427 0.93065 0.962871 0.995092 0.972688 0.940467 0.908245
0.876022 0.843798 0.811574 0.779349 0.747124 0.714898 0.682671 0.650444
0.618217 0.585989 0.553761 0.521533 0.489305 0.457077 0.424849 0.392621
0.360394 0.328167 0.29594 0.263714 0.231488 0.199263 0.167039 0.134815
0.102592 0.0703696 0.0381482 0.00592752 0.0261354 0.0583565 0.0905786
0.122801 0.155025 0.187249 0.219474 0.251699 0.283925 0.316152 0.348379
0.380606 0.412834 0.445062 0.47729 0.509518 0.541746 0.573974 0.606202
0.638429 0.670656 0.702883 0.735109 0.767335 0.79956 0.831784;
#X coords 0 1 99 -1 200 100 1 0 0;
#X restore -897 -969 graph;
#X obj -952 -971 tgl 15 0 empty empty empty 17 7 0 10 -262144 -1 -1
0 1;
#X obj -952 -887 metro 50;
#X obj -958 -861 tabwrite~ signal2;
#N canvas 1161 143 605 633 subOSC1 0;
#X floatatom -1106 -770 5 0 0 0 - - -;
#X msg -937 -866 65.4064;
#X msg -878 -866 130.813;
#X msg -766 -866 523.251;
#X msg -711 -866 1046.5;
#X obj -936 -909 sel 0 1 2 3 4;
#X obj -1048 -911 trigger bang bang;
#X floatatom -1106 -855 5 0 0 0 - - -;
#X msg -821 -866 261.626;
#X obj -1106 -963 inlet;
#X obj -936 -960 inlet;
#N canvas 175 61 450 300 Rechteck 0;
#X obj 98 223 outlet~;
#X obj 100 95 phasor~;
#X obj 173 95 phasor~;
#X obj 173 67 * -1;
#X obj 100 139 +~;
#X obj 99 178 -~ 1;
#X msg 139 67 0;
#X msg 212 66 0.5;
#X obj 179 35 loadbang;
#X obj 100 10 r frequenzSub;
#X connect 1 0 4 0;
#X connect 2 0 4 1;
#X connect 3 0 2 0;
#X connect 4 0 5 0;
#X connect 5 0 0 0;
#X connect 6 0 1 1;
#X connect 7 0 2 1;
#X connect 8 0 7 0;
#X connect 8 0 6 0;
#X connect 9 0 1 0;
#X connect 9 0 3 0;
#X restore -1104 -709 pd Rechteck;
#X obj -1104 -631 outlet~;
#X obj -1104 -670 *~ 1;
#X obj -1106 -800 expr ($f1*($f2/100)+$f2)/2;
#X obj -1106 -744 send frequenzSub;
#X connect 0 0 15 0;
#X connect 1 0 14 1;
#X connect 2 0 14 1;
#X connect 3 0 14 1;
#X connect 4 0 14 1;
#X connect 5 0 1 0;
#X connect 5 1 2 0;
#X connect 5 2 8 0;
#X connect 5 3 3 0;
#X connect 5 4 4 0;
#X connect 6 0 7 0;
#X connect 7 0 14 0;
#X connect 8 0 14 1;
#X connect 9 0 7 0;
#X connect 10 0 5 0;
#X connect 10 0 6 0;
#X connect 11 0 13 0;
#X connect 13 0 12 0;
#X connect 14 0 0 0;
#X restore -1283 -1026 pd subOSC1;
#X obj -1283 -831 *~ 0.3;
#X obj -1238 -831 *~ 0.3;
#X obj -958 -836 *~ 0.3;
#X text -960 -1147 Pitch -7 ... +7;
#X text -1241 -1144 Freq. Okt. Min ... Max;
#N canvas 199 591 450 300 OpenSoundControl 0;
#X obj 76 38 udpreceive 8000;
#X obj 76 69 unpackOSC;
#X obj 168 147 routeOSC /r2;
#X obj 265 153 routeOSC /r3;
#X obj 352 152 routeOSC /r4;
#X floatatom 71 194 5 0 0 0 - - -;
#X floatatom 173 198 5 0 0 0 - - -;
#X floatatom 273 210 5 0 0 0 - - -;
#X floatatom 361 218 5 0 0 0 - - -;
#X obj 77 262 send side;
#X obj 195 273 send top;
#X obj 10 80 print;
#X obj 79 105 routeOSC /touch;
#X obj 71 148 unpack f f;
#X obj 45 226 expr $f1/14.62;
#X obj 190 242 expr ((($f1-1200)/1200)*7);
#X connect 0 0 1 0;
#X connect 1 0 12 0;
#X connect 5 0 14 0;
#X connect 6 0 15 0;
#X connect 12 0 13 0;
#X connect 13 0 5 0;
#X connect 13 1 6 0;
#X connect 14 0 9 0;
#X connect 15 0 10 0;
#X restore -1279 -569 pd OpenSoundControl;
#X obj -1334 -1183 r side;
#X obj -1028 -1175 r top;
#X connect 6 0 16 2;
#X connect 7 0 6 0;
#X connect 10 0 11 0;
#X connect 11 0 9 0;
#X connect 12 0 16 1;
#X connect 12 0 33 1;
#X connect 13 0 16 0;
#X connect 13 0 33 0;
#X connect 16 0 9 0;
#X connect 16 0 35 0;
#X connect 21 0 28 2;
#X connect 22 0 21 0;
#X connect 23 0 28 1;
#X connect 24 0 28 0;
#X connect 28 0 32 0;
#X connect 28 0 36 0;
#X connect 30 0 31 0;
#X connect 31 0 32 0;
#X connect 33 0 34 0;
#X connect 34 0 0 1;
#X connect 34 0 0 0;
#X connect 35 0 0 0;
#X connect 35 0 0 1;
#X connect 36 0 0 0;
#X connect 36 0 0 1;
#X connect 40 0 13 0;
#X connect 41 0 24 0;
